# MagicaVoxel @ Ephtracy

# group
g carrot_1

# material
mtllib carrot_1.mtl
usemtl palette

# normals
vn -1 0 0
vn 1 0 0
vn 0 0 1
vn 0 0 -1
vn 0 -1 0
vn 0 1 0

# texcoords
vt 0.373047 0.5
vt 0.439453 0.5
vt 0.720703 0.5
vt 0.744141 0.5

# verts
v -4 6 -0
v -4 6 -1
v -4 9 -0
v -4 9 -1
v -4 10 -0
v -4 10 -1
v -3 0 3
v -3 0 -3
v -3 1 3
v -3 1 -3
v -3 5 1
v -3 5 -0
v -3 5 -1
v -3 6 1
v -3 6 -0
v -3 6 -1
v -3 7 1
v -3 7 -0
v -3 8 -1
v -3 8 -2
v -3 9 -1
v -3 9 -2
v -2 3 1
v -2 3 -0
v -2 3 -1
v -2 5 1
v -2 5 -0
v -2 5 -1
v -2 7 -0
v -2 7 -1
v -2 8 -1
v -2 9 -0
v -2 9 -1
v -2 9 -2
v -2 11 -1
v -2 11 -2
v -1 1 1
v -1 1 -1
v -1 3 2
v -1 3 1
v -1 3 -0
v -1 3 -1
v -1 3 -2
v -1 4 -1
v -1 4 -2
v -1 5 3
v -1 5 2
v -1 5 1
v -1 5 -0
v -1 5 -2
v -1 5 -3
v -1 6 3
v -1 6 2
v -1 6 -0
v -1 6 -1
v -1 6 -2
v -1 7 3
v -1 7 2
v -1 7 -0
v -1 7 -1
v -1 7 -2
v -1 7 -3
v -1 8 1
v -1 8 -0
v -1 9 1
v -1 9 -0
v 0 6 4
v 0 6 3
v 0 6 1
v 0 6 -0
v 0 6 -3
v 0 6 -4
v 0 7 3
v 0 7 -3
v 0 8 2
v 0 8 1
v 0 8 -0
v 0 8 -3
v 0 8 -4
v 0 9 1
v 0 9 -3
v 0 9 -4
v 0 10 4
v 0 10 3
v 0 10 2
v 0 10 1
v 0 10 -3
v 0 10 -4
v 0 11 2
v 0 11 1
v 0 12 2
v 0 12 1
v 1 7 -0
v 1 7 -1
v 1 7 -2
v 1 8 -0
v 1 8 -1
v 1 9 -2
v 1 9 -3
v 1 10 -1
v 1 10 -2
v 1 10 -3
v 1 12 -2
v 1 12 -3
v 2 6 1
v 2 6 -0
v 2 7 1
v 2 7 -0
v 3 7 -0
v 3 7 -1
v 3 9 -0
v 3 9 -1
v 3 10 -0
v 3 10 -1
v -3 7 -0
v -3 7 -1
v -3 8 -1
v -3 9 -0
v -3 9 -1
v -3 10 -0
v -3 10 -1
v -2 5 1
v -2 5 -0
v -2 6 1
v -2 6 -0
v -2 6 -1
v -2 7 1
v -2 7 -0
v -2 7 -1
v -1 8 -0
v -1 8 -1
v -1 8 -2
v -1 9 -0
v -1 9 -1
v -1 9 -2
v -1 11 -1
v -1 11 -2
v 0 7 -0
v 0 7 -1
v 0 8 -0
v 0 8 -1
v 1 1 1
v 1 1 -1
v 1 3 2
v 1 3 1
v 1 3 -1
v 1 3 -2
v 1 4 2
v 1 4 1
v 1 5 3
v 1 5 2
v 1 5 1
v 1 5 -1
v 1 5 -2
v 1 5 -3
v 1 6 4
v 1 6 3
v 1 6 2
v 1 6 1
v 1 6 -0
v 1 6 -1
v 1 6 -2
v 1 6 -3
v 1 6 -4
v 1 7 3
v 1 7 2
v 1 7 -2
v 1 7 -3
v 1 8 2
v 1 8 1
v 1 8 -0
v 1 8 -3
v 1 8 -4
v 1 9 1
v 1 9 -0
v 1 9 -3
v 1 9 -4
v 1 10 4
v 1 10 3
v 1 10 2
v 1 10 1
v 1 10 -3
v 1 10 -4
v 1 11 2
v 1 11 1
v 1 12 2
v 1 12 1
v 2 3 1
v 2 3 -1
v 2 5 1
v 2 5 -0
v 2 5 -1
v 2 6 -0
v 2 6 -1
v 2 7 -0
v 2 7 -1
v 2 7 -2
v 2 8 -0
v 2 8 -1
v 2 9 -2
v 2 9 -3
v 2 10 -1
v 2 10 -2
v 2 12 -2
v 2 12 -3
v 3 0 3
v 3 0 -3
v 3 1 3
v 3 1 -3
v 3 5 1
v 3 5 -0
v 3 6 1
v 3 6 -0
v 3 6 -1
v 3 7 1
v 3 7 -0
v 3 7 -1
v 4 7 -0
v 4 7 -1
v 4 9 -0
v 4 9 -1
v 4 10 -0
v 4 10 -1
v 0 6 4
v 0 10 4
v 1 6 4
v 1 10 4
v -3 0 3
v -3 1 3
v -1 5 3
v -1 6 3
v -1 7 3
v 0 5 3
v 0 6 3
v 0 7 3
v 1 5 3
v 1 6 3
v 3 0 3
v 3 1 3
v -1 3 2
v -1 5 2
v 0 3 2
v 0 4 2
v 0 5 2
v 0 8 2
v 0 10 2
v 0 11 2
v 0 12 2
v 1 3 2
v 1 4 2
v 1 5 2
v 1 8 2
v 1 10 2
v 1 11 2
v 1 12 2
v -3 5 1
v -3 6 1
v -3 7 1
v -2 3 1
v -2 5 1
v -2 6 1
v -2 7 1
v -1 1 1
v -1 3 1
v -1 5 1
v -1 8 1
v -1 9 1
v 0 3 1
v 0 6 1
v 0 8 1
v 0 9 1
v 1 1 1
v 1 3 1
v 1 4 1
v 1 5 1
v 1 6 1
v 1 8 1
v 2 3 1
v 2 5 1
v 2 6 1
v 2 7 1
v 3 5 1
v 3 6 1
v 3 7 1
v -4 6 -0
v -4 9 -0
v -4 10 -0
v -3 6 -0
v -3 7 -0
v -3 9 -0
v -3 10 -0
v -2 5 -0
v -2 6 -0
v -2 7 -0
v -2 9 -0
v -1 5 -0
v -1 6 -0
v -1 7 -0
v -1 8 -0
v -1 9 -0
v 0 6 -0
v 0 8 -0
v 1 6 -0
v 1 8 -0
v 2 6 -0
v 2 7 -0
v 2 8 -0
v 3 7 -0
v 3 9 -0
v 3 10 -0
v 4 7 -0
v 4 9 -0
v 4 10 -0
v -3 8 -1
v -3 9 -1
v -2 8 -1
v -2 9 -1
v -2 11 -1
v -1 9 -1
v -1 11 -1
v 1 8 -1
v 1 10 -1
v 2 8 -1
v 2 10 -1
v -1 6 -2
v -1 7 -2
v 1 6 -2
v 1 7 -2
v 1 10 -2
v 1 12 -2
v 2 10 -2
v 2 12 -2
v 0 7 -3
v 0 8 -3
v 0 9 -3
v 0 10 -3
v 1 7 -3
v 1 8 -3
v 1 9 -3
v 1 10 -3
v 0 7 3
v 0 10 3
v 1 7 3
v 1 10 3
v -1 6 2
v -1 7 2
v 0 6 2
v 0 7 2
v 1 6 2
v 1 7 2
v 0 9 1
v 0 10 1
v 0 11 1
v 0 12 1
v 1 9 1
v 1 10 1
v 1 11 1
v 1 12 1
v -1 8 -0
v -1 9 -0
v 0 7 -0
v 0 8 -0
v 1 7 -0
v 1 8 -0
v 1 9 -0
v 2 5 -0
v 2 6 -0
v 3 5 -0
v 3 6 -0
v -4 6 -1
v -4 9 -1
v -4 10 -1
v -3 5 -1
v -3 6 -1
v -3 7 -1
v -3 8 -1
v -3 9 -1
v -3 10 -1
v -2 3 -1
v -2 5 -1
v -2 6 -1
v -2 7 -1
v -2 8 -1
v -1 1 -1
v -1 3 -1
v -1 4 -1
v -1 6 -1
v -1 7 -1
v -1 8 -1
v 0 3 -1
v 0 6 -1
v 0 7 -1
v 0 8 -1
v 1 1 -1
v 1 3 -1
v 1 5 -1
v 1 6 -1
v 1 7 -1
v 2 3 -1
v 2 5 -1
v 2 6 -1
v 2 7 -1
v 3 6 -1
v 3 7 -1
v 3 9 -1
v 3 10 -1
v 4 7 -1
v 4 9 -1
v 4 10 -1
v -3 8 -2
v -3 9 -2
v -2 8 -2
v -2 9 -2
v -2 11 -2
v -1 3 -2
v -1 4 -2
v -1 5 -2
v -1 8 -2
v -1 9 -2
v -1 11 -2
v 0 3 -2
v 0 4 -2
v 1 3 -2
v 1 5 -2
v 1 7 -2
v 1 9 -2
v 2 7 -2
v 2 9 -2
v -3 0 -3
v -3 1 -3
v -1 5 -3
v -1 7 -3
v 0 6 -3
v 0 7 -3
v 1 5 -3
v 1 6 -3
v 1 9 -3
v 1 10 -3
v 1 12 -3
v 2 9 -3
v 2 12 -3
v 3 0 -3
v 3 1 -3
v 0 6 -4
v 0 8 -4
v 0 9 -4
v 0 10 -4
v 1 6 -4
v 1 8 -4
v 1 9 -4
v 1 10 -4
v -3 0 3
v 3 0 3
v -3 0 -3
v 3 0 -3
v -1 3 2
v 0 3 2
v 1 3 2
v -2 3 1
v -1 3 1
v 0 3 1
v 1 3 1
v 2 3 1
v -2 3 -0
v -1 3 -0
v -2 3 -1
v -1 3 -1
v 0 3 -1
v 1 3 -1
v 2 3 -1
v -1 3 -2
v 0 3 -2
v 1 3 -2
v -1 5 3
v 0 5 3
v 1 5 3
v -1 5 2
v 0 5 2
v 1 5 2
v -3 5 1
v -2 5 1
v 2 5 1
v 3 5 1
v -3 5 -0
v -2 5 -0
v 2 5 -0
v 3 5 -0
v -3 5 -1
v -2 5 -1
v -1 5 -2
v 1 5 -2
v -1 5 -3
v 1 5 -3
v 0 6 4
v 1 6 4
v 0 6 3
v 1 6 3
v -4 6 -0
v -3 6 -0
v 2 6 -0
v 3 6 -0
v -4 6 -1
v -3 6 -1
v 2 6 -1
v 3 6 -1
v 0 6 -3
v 1 6 -3
v 0 6 -4
v 1 6 -4
v -2 7 -0
v -1 7 -0
v 3 7 -0
v 4 7 -0
v -2 7 -1
v -1 7 -1
v 1 7 -1
v 2 7 -1
v 3 7 -1
v 4 7 -1
v 1 7 -2
v 2 7 -2
v 0 8 2
v 1 8 2
v -1 8 1
v 0 8 1
v 1 8 1
v -1 8 -0
v 0 8 -0
v -3 8 -1
v -2 8 -1
v -1 8 -1
v -3 8 -2
v -2 8 -2
v -1 8 -2
v 1 9 -2
v 2 9 -2
v 1 9 -3
v 2 9 -3
v -3 1 3
v 3 1 3
v -1 1 1
v 1 1 1
v -1 1 -1
v 1 1 -1
v -3 1 -3
v 3 1 -3
v -2 5 1
v -1 5 1
v -2 5 -0
v -1 5 -0
v -1 6 2
v 0 6 2
v 1 6 2
v 0 6 1
v 1 6 1
v 2 6 1
v -2 6 -0
v -1 6 -0
v 0 6 -0
v 1 6 -0
v 2 6 -0
v -2 6 -1
v -1 6 -1
v 0 6 -1
v 1 6 -1
v -1 6 -2
v 1 6 -2
v -1 7 3
v 0 7 3
v 1 7 3
v -1 7 2
v 0 7 2
v 1 7 2
v -3 7 1
v -2 7 1
v 2 7 1
v 3 7 1
v -3 7 -0
v -2 7 -0
v 0 7 -0
v 1 7 -0
v 2 7 -0
v 3 7 -0
v -3 7 -1
v -2 7 -1
v 0 7 -1
v 1 7 -1
v 2 7 -1
v 3 7 -1
v -1 7 -2
v 1 7 -2
v -1 7 -3
v 0 7 -3
v 1 7 -3
v -1 8 -0
v 0 8 -0
v 1 8 -0
v 2 8 -0
v -1 8 -1
v 0 8 -1
v 1 8 -1
v 2 8 -1
v -1 9 1
v 0 9 1
v 1 9 1
v -2 9 -0
v -1 9 -0
v 1 9 -0
v -3 9 -1
v -2 9 -1
v -1 9 -1
v -3 9 -2
v -2 9 -2
v 0 10 4
v 1 10 4
v 0 10 3
v 1 10 3
v -4 10 -0
v -3 10 -0
v 3 10 -0
v 4 10 -0
v -4 10 -1
v -3 10 -1
v 1 10 -1
v 2 10 -1
v 3 10 -1
v 4 10 -1
v 1 10 -2
v 2 10 -2
v 0 10 -3
v 1 10 -3
v 0 10 -4
v 1 10 -4
v -2 11 -1
v -1 11 -1
v -2 11 -2
v -1 11 -2
v 0 12 2
v 1 12 2
v 0 12 1
v 1 12 1
v 1 12 -2
v 2 12 -2
v 1 12 -3
v 2 12 -3

# faces
f 3/4/1 2/4/1 1/4/1
f 4/4/1 2/4/1 3/4/1
f 5/2/1 4/2/1 3/2/1
f 6/2/1 4/2/1 5/2/1
f 9/1/1 8/1/1 7/1/1
f 10/1/1 8/1/1 9/1/1
f 14/4/1 12/4/1 11/4/1
f 15/2/1 13/2/1 12/2/1
f 15/4/1 12/4/1 14/4/1
f 16/2/1 13/2/1 15/2/1
f 17/2/1 15/2/1 14/2/1
f 18/2/1 15/2/1 17/2/1
f 21/3/1 20/3/1 19/3/1
f 22/3/1 20/3/1 21/3/1
f 26/2/1 24/2/1 23/2/1
f 27/4/1 25/4/1 24/4/1
f 27/2/1 24/2/1 26/2/1
f 28/4/1 25/4/1 27/4/1
f 31/4/1 30/4/1 29/4/1
f 32/4/1 31/4/1 29/4/1
f 33/4/1 31/4/1 32/4/1
f 35/3/1 34/3/1 33/3/1
f 36/3/1 34/3/1 35/3/1
f 40/4/1 38/4/1 37/4/1
f 41/4/1 38/4/1 40/4/1
f 42/4/1 38/4/1 41/4/1
f 44/2/1 43/2/1 42/2/1
f 45/2/1 43/2/1 44/2/1
f 47/4/1 40/4/1 39/4/1
f 48/4/1 40/4/1 47/4/1
f 50/4/1 45/4/1 44/4/1
f 52/2/1 49/2/1 48/2/1
f 52/2/1 47/2/1 46/2/1
f 52/2/1 48/2/1 47/2/1
f 53/2/1 49/2/1 52/2/1
f 54/2/1 49/2/1 53/2/1
f 55/4/1 50/4/1 44/4/1
f 55/4/1 51/4/1 50/4/1
f 56/4/1 51/4/1 55/4/1
f 57/4/1 53/4/1 52/4/1
f 58/4/1 53/4/1 57/4/1
f 59/3/1 55/3/1 54/3/1
f 60/3/1 55/3/1 59/3/1
f 61/4/1 51/4/1 56/4/1
f 62/4/1 51/4/1 61/4/1
f 65/3/1 64/3/1 63/3/1
f 66/3/1 64/3/1 65/3/1
f 73/4/1 68/4/1 67/4/1
f 74/4/1 72/4/1 71/4/1
f 76/3/1 70/3/1 69/3/1
f 77/3/1 70/3/1 76/3/1
f 78/4/1 72/4/1 74/4/1
f 79/4/1 72/4/1 78/4/1
f 80/4/1 76/4/1 75/4/1
f 81/2/1 79/2/1 78/2/1
f 82/2/1 79/2/1 81/2/1
f 83/4/1 73/4/1 67/4/1
f 84/4/1 73/4/1 83/4/1
f 85/4/1 80/4/1 75/4/1
f 86/4/1 80/4/1 85/4/1
f 87/4/1 82/4/1 81/4/1
f 88/4/1 82/4/1 87/4/1
f 89/3/1 86/3/1 85/3/1
f 90/3/1 86/3/1 89/3/1
f 91/4/1 90/4/1 89/4/1
f 92/4/1 90/4/1 91/4/1
f 96/3/1 94/3/1 93/3/1
f 97/4/1 95/4/1 94/4/1
f 97/3/1 94/3/1 96/3/1
f 98/4/1 95/4/1 97/4/1
f 100/4/1 98/4/1 97/4/1
f 100/4/1 99/4/1 98/4/1
f 101/4/1 99/4/1 100/4/1
f 102/4/1 99/4/1 101/4/1
f 103/4/1 102/4/1 101/4/1
f 104/4/1 102/4/1 103/4/1
f 107/2/1 106/2/1 105/2/1
f 108/2/1 106/2/1 107/2/1
f 111/4/1 110/4/1 109/4/1
f 112/4/1 110/4/1 111/4/1
f 113/2/1 112/2/1 111/2/1
f 114/2/1 112/2/1 113/2/1
f 115/4/2 116/4/2 117/4/2
f 115/4/2 117/4/2 118/4/2
f 118/4/2 117/4/2 119/4/2
f 118/2/2 119/2/2 120/2/2
f 120/2/2 119/2/2 121/2/2
f 122/4/2 123/4/2 124/4/2
f 124/4/2 123/4/2 125/4/2
f 124/2/2 125/2/2 127/2/2
f 125/2/2 126/2/2 127/2/2
f 127/2/2 126/2/2 128/2/2
f 128/2/2 126/2/2 129/2/2
f 130/4/2 131/4/2 133/4/2
f 131/4/2 132/4/2 133/4/2
f 133/4/2 132/4/2 134/4/2
f 134/4/2 132/4/2 135/4/2
f 134/3/2 135/3/2 136/3/2
f 136/3/2 135/3/2 137/3/2
f 138/3/2 139/3/2 140/3/2
f 140/3/2 139/3/2 141/3/2
f 142/4/2 143/4/2 145/4/2
f 145/4/2 143/4/2 146/4/2
f 144/2/2 145/2/2 148/2/2
f 148/2/2 145/2/2 149/2/2
f 148/4/2 149/4/2 151/4/2
f 151/4/2 149/4/2 152/4/2
f 146/4/2 147/4/2 153/4/2
f 153/4/2 147/4/2 154/4/2
f 151/4/2 152/4/2 157/4/2
f 150/4/2 151/4/2 157/4/2
f 157/4/2 152/4/2 158/4/2
f 158/4/2 152/4/2 159/4/2
f 154/4/2 155/4/2 161/4/2
f 153/4/2 154/4/2 161/4/2
f 161/4/2 155/4/2 162/4/2
f 162/4/2 155/4/2 163/4/2
f 156/4/2 157/4/2 165/4/2
f 157/2/2 158/2/2 165/2/2
f 165/2/2 158/2/2 166/2/2
f 163/4/2 164/4/2 167/4/2
f 162/4/2 163/4/2 167/4/2
f 167/4/2 164/4/2 168/4/2
f 159/3/2 160/3/2 170/3/2
f 170/3/2 160/3/2 171/3/2
f 168/4/2 164/4/2 172/4/2
f 172/4/2 164/4/2 173/4/2
f 170/3/2 171/3/2 174/3/2
f 169/4/2 170/4/2 174/4/2
f 174/3/2 171/3/2 175/3/2
f 172/2/2 173/2/2 176/2/2
f 176/2/2 173/2/2 177/2/2
f 156/4/2 165/4/2 178/4/2
f 178/4/2 165/4/2 179/4/2
f 169/4/2 174/4/2 180/4/2
f 180/4/2 174/4/2 181/4/2
f 176/4/2 177/4/2 182/4/2
f 182/4/2 177/4/2 183/4/2
f 180/3/2 181/3/2 184/3/2
f 184/3/2 181/3/2 185/3/2
f 184/4/2 185/4/2 186/4/2
f 186/4/2 185/4/2 187/4/2
f 188/4/2 189/4/2 190/4/2
f 190/4/2 189/4/2 191/4/2
f 191/4/2 189/4/2 192/4/2
f 191/2/2 192/2/2 193/2/2
f 193/2/2 192/2/2 194/2/2
f 195/3/2 196/3/2 198/3/2
f 196/4/2 197/4/2 199/4/2
f 198/3/2 196/3/2 199/3/2
f 199/4/2 197/4/2 200/4/2
f 199/4/2 200/4/2 202/4/2
f 200/4/2 201/4/2 202/4/2
f 202/4/2 201/4/2 203/4/2
f 203/4/2 201/4/2 204/4/2
f 204/4/2 201/4/2 205/4/2
f 206/1/2 207/1/2 208/1/2
f 208/1/2 207/1/2 209/1/2
f 210/4/2 211/4/2 212/4/2
f 212/4/2 211/4/2 213/4/2
f 212/2/2 213/2/2 215/2/2
f 213/2/2 214/2/2 215/2/2
f 215/2/2 214/2/2 216/2/2
f 216/2/2 214/2/2 217/2/2
f 218/4/2 219/4/2 220/4/2
f 220/4/2 219/4/2 221/4/2
f 220/2/2 221/2/2 222/2/2
f 222/2/2 221/2/2 223/2/2
f 226/4/3 225/4/3 224/4/3
f 227/4/3 225/4/3 226/4/3
f 233/2/3 231/2/3 230/2/3
f 234/4/3 232/4/3 231/4/3
f 234/2/3 231/2/3 233/2/3
f 235/4/3 232/4/3 234/4/3
f 236/4/3 234/4/3 233/4/3
f 237/4/3 234/4/3 236/4/3
f 238/1/3 229/1/3 228/1/3
f 239/1/3 229/1/3 238/1/3
f 242/4/3 241/4/3 240/4/3
f 243/4/3 241/4/3 242/4/3
f 244/4/3 241/4/3 243/4/3
f 249/2/3 243/2/3 242/2/3
f 250/4/3 244/4/3 243/4/3
f 250/2/3 243/2/3 249/2/3
f 251/4/3 244/4/3 250/4/3
f 252/4/3 246/4/3 245/4/3
f 253/3/3 247/3/3 246/3/3
f 253/4/3 246/4/3 252/4/3
f 254/4/3 248/4/3 247/4/3
f 254/3/3 247/3/3 253/3/3
f 255/4/3 248/4/3 254/4/3
f 260/4/3 257/4/3 256/4/3
f 261/2/3 258/2/3 257/2/3
f 261/4/3 257/4/3 260/4/3
f 262/2/3 258/2/3 261/2/3
f 264/2/3 260/2/3 259/2/3
f 265/2/3 260/2/3 264/2/3
f 268/4/3 264/4/3 263/4/3
f 270/3/3 267/3/3 266/3/3
f 271/3/3 267/3/3 270/3/3
f 272/4/3 268/4/3 263/4/3
f 273/4/3 268/4/3 272/4/3
f 276/3/3 270/3/3 269/3/3
f 277/3/3 270/3/3 276/3/3
f 278/4/3 275/4/3 274/4/3
f 278/4/3 274/4/3 273/4/3
f 279/2/3 276/2/3 275/2/3
f 279/4/3 275/4/3 278/4/3
f 280/2/3 276/2/3 279/2/3
f 282/4/3 280/4/3 279/4/3
f 283/2/3 281/2/3 280/2/3
f 283/4/3 280/4/3 282/4/3
f 284/2/3 281/2/3 283/2/3
f 288/4/3 286/4/3 285/4/3
f 289/4/3 286/4/3 288/4/3
f 290/2/3 287/2/3 286/2/3
f 290/4/3 286/4/3 289/4/3
f 291/2/3 287/2/3 290/2/3
f 296/4/3 293/4/3 292/4/3
f 297/4/3 293/4/3 296/4/3
f 298/4/3 295/4/3 294/4/3
f 299/4/3 295/4/3 298/4/3
f 300/4/3 295/4/3 299/4/3
f 301/3/3 298/3/3 297/3/3
f 301/3/3 299/3/3 298/3/3
f 302/3/3 299/3/3 301/3/3
f 305/3/3 304/3/3 303/3/3
f 306/3/3 304/3/3 305/3/3
f 307/3/3 304/3/3 306/3/3
f 311/4/3 309/4/3 308/4/3
f 312/2/3 310/2/3 309/2/3
f 312/4/3 309/4/3 311/4/3
f 313/2/3 310/2/3 312/2/3
f 316/3/3 315/3/3 314/3/3
f 317/3/3 315/3/3 316/3/3
f 319/3/3 318/3/3 317/3/3
f 320/3/3 318/3/3 319/3/3
f 323/4/3 322/4/3 321/4/3
f 324/4/3 322/4/3 323/4/3
f 327/4/3 326/4/3 325/4/3
f 328/4/3 326/4/3 327/4/3
f 331/4/3 330/4/3 329/4/3
f 332/4/3 330/4/3 331/4/3
f 337/4/3 334/4/3 333/4/3
f 338/2/3 335/2/3 334/2/3
f 338/4/3 334/4/3 337/4/3
f 339/4/3 336/4/3 335/4/3
f 339/2/3 335/2/3 338/2/3
f 340/4/3 336/4/3 339/4/3
f 341/4/4 342/4/4 343/4/4
f 343/4/4 342/4/4 344/4/4
f 345/4/4 346/4/4 347/4/4
f 347/4/4 346/4/4 348/4/4
f 347/2/4 348/2/4 349/2/4
f 349/2/4 348/2/4 350/2/4
f 351/4/4 352/4/4 355/4/4
f 352/3/4 353/3/4 356/3/4
f 355/4/4 352/4/4 356/4/4
f 353/4/4 354/4/4 357/4/4
f 356/3/4 353/3/4 357/3/4
f 357/4/4 354/4/4 358/4/4
f 359/3/4 360/3/4 362/3/4
f 361/3/4 362/3/4 363/3/4
f 362/3/4 360/3/4 364/3/4
f 363/3/4 362/3/4 364/3/4
f 364/3/4 360/3/4 365/3/4
f 366/4/4 367/4/4 368/4/4
f 368/4/4 367/4/4 369/4/4
f 370/4/4 371/4/4 374/4/4
f 374/4/4 371/4/4 375/4/4
f 375/4/4 371/4/4 376/4/4
f 371/2/4 372/2/4 377/2/4
f 376/4/4 371/4/4 377/4/4
f 377/2/4 372/2/4 378/2/4
f 373/2/4 374/2/4 380/2/4
f 374/2/4 375/2/4 380/2/4
f 380/2/4 375/2/4 381/2/4
f 381/2/4 375/2/4 382/2/4
f 379/4/4 380/4/4 385/4/4
f 380/4/4 381/4/4 385/4/4
f 385/4/4 381/4/4 386/4/4
f 386/4/4 381/4/4 387/4/4
f 382/4/4 383/4/4 388/4/4
f 388/4/4 383/4/4 389/4/4
f 384/4/4 385/4/4 390/4/4
f 388/3/4 389/3/4 391/3/4
f 387/3/4 388/3/4 391/3/4
f 391/3/4 389/3/4 392/3/4
f 392/3/4 389/3/4 393/3/4
f 384/4/4 390/4/4 394/4/4
f 394/4/4 390/4/4 395/4/4
f 391/4/4 392/4/4 397/4/4
f 397/4/4 392/4/4 398/4/4
f 395/4/4 396/4/4 399/4/4
f 396/2/4 397/2/4 400/2/4
f 399/4/4 396/4/4 400/4/4
f 397/3/4 398/3/4 401/3/4
f 400/2/4 397/2/4 401/2/4
f 401/3/4 398/3/4 402/3/4
f 401/2/4 402/2/4 403/2/4
f 403/2/4 402/2/4 404/2/4
f 404/4/4 405/4/4 407/4/4
f 405/2/4 406/2/4 408/2/4
f 407/4/4 405/4/4 408/4/4
f 408/2/4 406/2/4 409/2/4
f 410/3/4 411/3/4 412/3/4
f 412/3/4 411/3/4 413/3/4
f 412/4/4 413/4/4 418/4/4
f 413/3/4 414/3/4 419/3/4
f 418/4/4 413/4/4 419/4/4
f 419/3/4 414/3/4 420/3/4
f 415/2/4 416/2/4 421/2/4
f 416/4/4 417/4/4 422/4/4
f 421/2/4 416/2/4 422/2/4
f 421/4/4 422/4/4 423/4/4
f 422/4/4 417/4/4 424/4/4
f 423/4/4 422/4/4 424/4/4
f 425/4/4 426/4/4 427/4/4
f 427/4/4 426/4/4 428/4/4
f 431/4/4 432/4/4 433/4/4
f 433/4/4 432/4/4 434/4/4
f 431/4/4 433/4/4 435/4/4
f 435/4/4 433/4/4 436/4/4
f 438/4/4 439/4/4 440/4/4
f 437/4/4 438/4/4 440/4/4
f 440/4/4 439/4/4 441/4/4
f 429/1/4 430/1/4 442/1/4
f 442/1/4 430/1/4 443/1/4
f 444/4/4 445/4/4 448/4/4
f 445/2/4 446/2/4 449/2/4
f 448/4/4 445/4/4 449/4/4
f 446/4/4 447/4/4 450/4/4
f 449/2/4 446/2/4 450/2/4
f 450/4/4 447/4/4 451/4/4
f 454/1/5 453/1/5 452/1/5
f 455/1/5 453/1/5 454/1/5
f 460/4/5 457/4/5 456/4/5
f 461/2/5 458/2/5 457/2/5
f 461/4/5 457/4/5 460/4/5
f 462/2/5 458/2/5 461/2/5
f 464/2/5 460/2/5 459/2/5
f 465/2/5 460/2/5 464/2/5
f 466/4/5 465/4/5 464/4/5
f 467/4/5 465/4/5 466/4/5
f 469/4/5 463/4/5 462/4/5
f 470/4/5 463/4/5 469/4/5
f 471/2/5 468/2/5 467/2/5
f 472/4/5 469/4/5 468/4/5
f 472/2/5 468/2/5 471/2/5
f 473/4/5 469/4/5 472/4/5
f 477/2/5 475/2/5 474/2/5
f 478/4/5 476/4/5 475/4/5
f 478/2/5 475/2/5 477/2/5
f 479/4/5 476/4/5 478/4/5
f 484/4/5 481/4/5 480/4/5
f 485/4/5 481/4/5 484/4/5
f 486/4/5 483/4/5 482/4/5
f 487/4/5 483/4/5 486/4/5
f 488/2/5 485/2/5 484/2/5
f 489/2/5 485/2/5 488/2/5
f 492/4/5 491/4/5 490/4/5
f 493/4/5 491/4/5 492/4/5
f 496/4/5 495/4/5 494/4/5
f 497/4/5 495/4/5 496/4/5
f 502/4/5 499/4/5 498/4/5
f 503/4/5 499/4/5 502/4/5
f 504/2/5 501/2/5 500/2/5
f 505/2/5 501/2/5 504/2/5
f 508/4/5 507/4/5 506/4/5
f 509/4/5 507/4/5 508/4/5
f 514/4/5 511/4/5 510/4/5
f 515/4/5 511/4/5 514/4/5
f 518/4/5 513/4/5 512/4/5
f 519/4/5 513/4/5 518/4/5
f 520/4/5 517/4/5 516/4/5
f 521/4/5 517/4/5 520/4/5
f 525/4/5 523/4/5 522/4/5
f 526/4/5 523/4/5 525/4/5
f 527/3/5 525/3/5 524/3/5
f 528/3/5 525/3/5 527/3/5
f 532/3/5 530/3/5 529/3/5
f 533/4/5 531/4/5 530/4/5
f 533/3/5 530/3/5 532/3/5
f 534/4/5 531/4/5 533/4/5
f 537/4/5 536/4/5 535/4/5
f 538/4/5 536/4/5 537/4/5
f 539/1/6 540/1/6 541/1/6
f 541/1/6 540/1/6 542/1/6
f 539/1/6 541/1/6 543/1/6
f 542/1/6 540/1/6 544/1/6
f 539/1/6 543/1/6 545/1/6
f 543/1/6 544/1/6 545/1/6
f 544/1/6 540/1/6 546/1/6
f 545/1/6 544/1/6 546/1/6
f 547/2/6 548/2/6 549/2/6
f 549/2/6 548/2/6 550/2/6
f 551/2/6 552/2/6 554/2/6
f 552/4/6 553/4/6 554/4/6
f 554/4/6 553/4/6 555/4/6
f 551/2/6 554/2/6 558/2/6
f 558/2/6 554/2/6 559/2/6
f 555/2/6 556/2/6 560/2/6
f 560/2/6 556/2/6 561/2/6
f 557/4/6 558/4/6 562/4/6
f 562/4/6 558/4/6 563/4/6
f 564/4/6 565/4/6 566/4/6
f 563/4/6 564/4/6 566/4/6
f 566/4/6 565/4/6 567/4/6
f 568/4/6 569/4/6 571/4/6
f 569/2/6 570/2/6 572/2/6
f 571/4/6 569/4/6 572/4/6
f 572/2/6 570/2/6 573/2/6
f 574/2/6 575/2/6 578/2/6
f 578/2/6 575/2/6 579/2/6
f 576/2/6 577/2/6 582/2/6
f 582/2/6 577/2/6 583/2/6
f 578/2/6 579/2/6 584/2/6
f 584/2/6 579/2/6 585/2/6
f 580/4/6 581/4/6 586/4/6
f 586/4/6 581/4/6 587/4/6
f 582/2/6 583/2/6 588/2/6
f 588/2/6 583/2/6 589/2/6
f 590/4/6 591/4/6 592/4/6
f 592/4/6 591/4/6 593/4/6
f 593/4/6 591/4/6 594/4/6
f 595/3/6 596/3/6 599/3/6
f 599/3/6 596/3/6 600/3/6
f 597/3/6 598/3/6 601/3/6
f 601/3/6 598/3/6 602/3/6
f 603/3/6 604/3/6 607/3/6
f 604/3/6 605/3/6 607/3/6
f 607/3/6 605/3/6 608/3/6
f 606/4/6 607/4/6 610/4/6
f 610/4/6 607/4/6 611/4/6
f 609/3/6 610/3/6 612/3/6
f 612/3/6 610/3/6 613/3/6
f 614/4/6 615/4/6 616/4/6
f 616/4/6 615/4/6 617/4/6
f 618/2/6 619/2/6 622/2/6
f 622/2/6 619/2/6 623/2/6
f 620/2/6 621/2/6 626/2/6
f 626/2/6 621/2/6 627/2/6
f 624/4/6 625/4/6 628/4/6
f 628/4/6 625/4/6 629/4/6
f 630/4/6 631/4/6 632/4/6
f 632/4/6 631/4/6 633/4/6
f 634/3/6 635/3/6 636/3/6
f 636/3/6 635/3/6 637/3/6
f 638/4/6 639/4/6 640/4/6
f 640/4/6 639/4/6 641/4/6
f 642/4/6 643/4/6 644/4/6
f 644/4/6 643/4/6 645/4/6
