# MagicaVoxel @ Ephtracy

# group
g straw_1

# material
mtllib straw_1.mtl
usemtl palette

# normals
vn -1 0 0
vn 1 0 0
vn 0 0 1
vn 0 0 -1
vn 0 -1 0
vn 0 1 0

# texcoords
vt 0.748047 0.5

# verts
v -4 3 -0
v -4 3 -1
v -4 4 -0
v -4 4 -1
v -3 2 -0
v -3 2 -1
v -3 3 -0
v -3 3 -1
v -2 0 1
v -2 0 -1
v -2 1 1
v -2 1 -0
v -2 2 -0
v -2 2 -1
v -1 0 2
v -1 0 1
v -1 0 -1
v -1 0 -2
v -1 1 2
v -1 1 1
v -1 1 -0
v -1 1 -1
v -1 1 -2
v -1 3 2
v -1 3 1
v -1 3 -0
v -1 4 2
v -1 4 -0
v 0 2 -0
v 0 2 -1
v 0 2 -2
v 0 3 -0
v 0 3 -1
v 0 3 -2
v 0 3 -3
v 0 4 -1
v 0 4 -3
v 1 2 1
v 1 2 -0
v 1 3 -0
v 1 4 1
v 1 4 -0
v -2 3 -0
v -2 3 -1
v -2 4 -0
v -2 4 -1
v -1 2 -0
v -1 2 -1
v -1 3 -0
v -1 3 -1
v 0 2 1
v 0 2 -0
v 0 3 2
v 0 3 1
v 0 3 -0
v 0 4 2
v 0 4 -0
v 1 0 2
v 1 0 1
v 1 0 -1
v 1 0 -2
v 1 1 2
v 1 1 1
v 1 1 -0
v 1 1 -1
v 1 1 -2
v 1 2 -1
v 1 2 -2
v 1 3 -0
v 1 3 -1
v 1 3 -2
v 1 3 -3
v 1 4 -1
v 1 4 -3
v 2 0 1
v 2 0 -1
v 2 1 -0
v 2 1 -1
v 2 3 1
v 2 3 -0
v 3 3 1
v 3 3 -0
v 3 4 1
v 3 4 -0
v -1 0 2
v -1 1 2
v -1 3 2
v -1 4 2
v 0 3 2
v 0 4 2
v 1 0 2
v 1 1 2
v -2 0 1
v -2 1 1
v -1 0 1
v -1 1 1
v -1 3 1
v 0 2 1
v 0 3 1
v 1 0 1
v 1 1 1
v 1 2 1
v 1 4 1
v 2 0 1
v 2 3 1
v 3 3 1
v 3 4 1
v -4 3 -0
v -4 4 -0
v -3 2 -0
v -3 3 -0
v -2 1 -0
v -2 2 -0
v -2 3 -0
v -2 4 -0
v -1 1 -0
v -1 3 -0
v 0 2 -0
v 0 3 -0
v 1 2 -0
v 1 3 -0
v 0 3 -1
v 0 4 -1
v 1 3 -1
v 1 4 -1
v -1 2 -0
v -1 3 -0
v -1 4 -0
v 0 2 -0
v 0 3 -0
v 0 4 -0
v 1 1 -0
v 1 3 -0
v 1 4 -0
v 2 1 -0
v 2 3 -0
v 3 3 -0
v 3 4 -0
v -4 3 -1
v -4 4 -1
v -3 2 -1
v -3 3 -1
v -2 0 -1
v -2 2 -1
v -2 3 -1
v -2 4 -1
v -1 0 -1
v -1 1 -1
v -1 2 -1
v -1 3 -1
v 0 2 -1
v 1 0 -1
v 1 1 -1
v 1 2 -1
v 2 0 -1
v 2 1 -1
v -1 0 -2
v -1 1 -2
v 0 2 -2
v 0 3 -2
v 1 0 -2
v 1 1 -2
v 1 2 -2
v 1 3 -2
v 0 3 -3
v 0 4 -3
v 1 3 -3
v 1 4 -3
v -1 0 2
v 1 0 2
v -2 0 1
v -1 0 1
v 1 0 1
v 2 0 1
v -2 0 -1
v -1 0 -1
v 1 0 -1
v 2 0 -1
v -1 0 -2
v 1 0 -2
v -3 2 -0
v -2 2 -0
v -3 2 -1
v -2 2 -1
v 0 2 -1
v 1 2 -1
v 0 2 -2
v 1 2 -2
v -1 3 2
v 0 3 2
v -1 3 1
v 0 3 1
v 2 3 1
v 3 3 1
v -4 3 -0
v -3 3 -0
v 2 3 -0
v 3 3 -0
v -4 3 -1
v -3 3 -1
v 0 3 -2
v 1 3 -2
v 0 3 -3
v 1 3 -3
v -1 1 2
v 1 1 2
v -2 1 1
v -1 1 1
v 1 1 1
v -2 1 -0
v -1 1 -0
v 1 1 -0
v 2 1 -0
v -1 1 -1
v 1 1 -1
v 2 1 -1
v -1 1 -2
v 1 1 -2
v 0 2 1
v 1 2 1
v -1 2 -0
v 0 2 -0
v 1 2 -0
v -1 2 -1
v 0 2 -1
v -2 3 -0
v -1 3 -0
v 0 3 -0
v 1 3 -0
v -2 3 -1
v -1 3 -1
v 0 3 -1
v 1 3 -1
v -1 4 2
v 0 4 2
v 1 4 1
v 3 4 1
v -4 4 -0
v -2 4 -0
v -1 4 -0
v 0 4 -0
v 1 4 -0
v 3 4 -0
v -4 4 -1
v -2 4 -1
v 0 4 -1
v 1 4 -1
v 0 4 -3
v 1 4 -3

# faces
f 3/1/1 2/1/1 1/1/1
f 4/1/1 2/1/1 3/1/1
f 7/1/1 6/1/1 5/1/1
f 8/1/1 6/1/1 7/1/1
f 11/1/1 10/1/1 9/1/1
f 12/1/1 10/1/1 11/1/1
f 13/1/1 10/1/1 12/1/1
f 14/1/1 10/1/1 13/1/1
f 19/1/1 16/1/1 15/1/1
f 20/1/1 16/1/1 19/1/1
f 22/1/1 18/1/1 17/1/1
f 23/1/1 18/1/1 22/1/1
f 25/1/1 21/1/1 20/1/1
f 26/1/1 21/1/1 25/1/1
f 27/1/1 25/1/1 24/1/1
f 27/1/1 26/1/1 25/1/1
f 28/1/1 26/1/1 27/1/1
f 32/1/1 30/1/1 29/1/1
f 32/1/1 31/1/1 30/1/1
f 33/1/1 31/1/1 32/1/1
f 34/1/1 31/1/1 33/1/1
f 36/1/1 35/1/1 34/1/1
f 36/1/1 34/1/1 33/1/1
f 37/1/1 35/1/1 36/1/1
f 40/1/1 39/1/1 38/1/1
f 41/1/1 40/1/1 38/1/1
f 42/1/1 40/1/1 41/1/1
f 43/1/2 44/1/2 45/1/2
f 45/1/2 44/1/2 46/1/2
f 47/1/2 48/1/2 49/1/2
f 49/1/2 48/1/2 50/1/2
f 51/1/2 52/1/2 54/1/2
f 54/1/2 52/1/2 55/1/2
f 53/1/2 54/1/2 56/1/2
f 54/1/2 55/1/2 56/1/2
f 56/1/2 55/1/2 57/1/2
f 58/1/2 59/1/2 62/1/2
f 62/1/2 59/1/2 63/1/2
f 60/1/2 61/1/2 65/1/2
f 65/1/2 61/1/2 66/1/2
f 64/1/2 65/1/2 67/1/2
f 64/1/2 67/1/2 69/1/2
f 67/1/2 68/1/2 69/1/2
f 69/1/2 68/1/2 70/1/2
f 70/1/2 68/1/2 71/1/2
f 70/1/2 71/1/2 73/1/2
f 71/1/2 72/1/2 73/1/2
f 73/1/2 72/1/2 74/1/2
f 75/1/2 76/1/2 77/1/2
f 77/1/2 76/1/2 78/1/2
f 75/1/2 77/1/2 79/1/2
f 79/1/2 77/1/2 80/1/2
f 81/1/2 82/1/2 83/1/2
f 83/1/2 82/1/2 84/1/2
f 89/1/3 88/1/3 87/1/3
f 90/1/3 88/1/3 89/1/3
f 91/1/3 86/1/3 85/1/3
f 92/1/3 86/1/3 91/1/3
f 95/1/3 94/1/3 93/1/3
f 96/1/3 94/1/3 95/1/3
f 98/1/3 97/1/3 96/1/3
f 99/1/3 97/1/3 98/1/3
f 101/1/3 98/1/3 96/1/3
f 102/1/3 98/1/3 101/1/3
f 104/1/3 102/1/3 101/1/3
f 104/1/3 103/1/3 102/1/3
f 104/1/3 101/1/3 100/1/3
f 105/1/3 103/1/3 104/1/3
f 106/1/3 103/1/3 105/1/3
f 107/1/3 103/1/3 106/1/3
f 111/1/3 109/1/3 108/1/3
f 113/1/3 111/1/3 110/1/3
f 114/1/3 109/1/3 111/1/3
f 114/1/3 111/1/3 113/1/3
f 115/1/3 109/1/3 114/1/3
f 116/1/3 113/1/3 112/1/3
f 116/1/3 114/1/3 113/1/3
f 117/1/3 114/1/3 116/1/3
f 120/1/3 119/1/3 118/1/3
f 121/1/3 119/1/3 120/1/3
f 124/1/3 123/1/3 122/1/3
f 125/1/3 123/1/3 124/1/3
f 126/1/4 127/1/4 129/1/4
f 127/1/4 128/1/4 129/1/4
f 129/1/4 128/1/4 130/1/4
f 130/1/4 128/1/4 131/1/4
f 132/1/4 133/1/4 135/1/4
f 133/1/4 134/1/4 135/1/4
f 135/1/4 134/1/4 136/1/4
f 136/1/4 134/1/4 137/1/4
f 137/1/4 134/1/4 138/1/4
f 139/1/4 140/1/4 142/1/4
f 141/1/4 142/1/4 144/1/4
f 142/1/4 140/1/4 145/1/4
f 144/1/4 142/1/4 145/1/4
f 145/1/4 140/1/4 146/1/4
f 143/1/4 144/1/4 147/1/4
f 144/1/4 145/1/4 147/1/4
f 147/1/4 145/1/4 148/1/4
f 148/1/4 145/1/4 149/1/4
f 149/1/4 145/1/4 150/1/4
f 148/1/4 149/1/4 151/1/4
f 148/1/4 151/1/4 153/1/4
f 153/1/4 151/1/4 154/1/4
f 152/1/4 153/1/4 155/1/4
f 155/1/4 153/1/4 156/1/4
f 157/1/4 158/1/4 161/1/4
f 161/1/4 158/1/4 162/1/4
f 159/1/4 160/1/4 163/1/4
f 163/1/4 160/1/4 164/1/4
f 165/1/4 166/1/4 167/1/4
f 167/1/4 166/1/4 168/1/4
f 172/1/5 170/1/5 169/1/5
f 173/1/5 170/1/5 172/1/5
f 175/1/5 172/1/5 171/1/5
f 175/1/5 174/1/5 173/1/5
f 175/1/5 173/1/5 172/1/5
f 176/1/5 174/1/5 175/1/5
f 177/1/5 174/1/5 176/1/5
f 178/1/5 174/1/5 177/1/5
f 179/1/5 177/1/5 176/1/5
f 180/1/5 177/1/5 179/1/5
f 183/1/5 182/1/5 181/1/5
f 184/1/5 182/1/5 183/1/5
f 187/1/5 186/1/5 185/1/5
f 188/1/5 186/1/5 187/1/5
f 191/1/5 190/1/5 189/1/5
f 192/1/5 190/1/5 191/1/5
f 197/1/5 194/1/5 193/1/5
f 198/1/5 194/1/5 197/1/5
f 199/1/5 196/1/5 195/1/5
f 200/1/5 196/1/5 199/1/5
f 203/1/5 202/1/5 201/1/5
f 204/1/5 202/1/5 203/1/5
f 205/1/6 206/1/6 208/1/6
f 208/1/6 206/1/6 209/1/6
f 207/1/6 208/1/6 210/1/6
f 210/1/6 208/1/6 211/1/6
f 212/1/6 213/1/6 215/1/6
f 215/1/6 213/1/6 216/1/6
f 214/1/6 215/1/6 217/1/6
f 217/1/6 215/1/6 218/1/6
f 219/1/6 220/1/6 222/1/6
f 222/1/6 220/1/6 223/1/6
f 221/1/6 222/1/6 224/1/6
f 224/1/6 222/1/6 225/1/6
f 226/1/6 227/1/6 230/1/6
f 230/1/6 227/1/6 231/1/6
f 228/1/6 229/1/6 232/1/6
f 232/1/6 229/1/6 233/1/6
f 234/1/6 235/1/6 240/1/6
f 240/1/6 235/1/6 241/1/6
f 236/1/6 237/1/6 242/1/6
f 242/1/6 237/1/6 243/1/6
f 238/1/6 239/1/6 244/1/6
f 244/1/6 239/1/6 245/1/6
f 246/1/6 247/1/6 248/1/6
f 248/1/6 247/1/6 249/1/6
